{"accessors":[{"name":"pyramid-Mesh_positions","componentType":5126,"count":662,"min":[-0.978173017501831,-1.8020930290222168,-1.0729680061340332],"max":[0.9690989851951599,0.28780800104141235,0.2857320010662079],"type":"VEC3","bufferView":0,"byteOffset":0},{"name":"pyramid-Mesh_normals","componentType":5126,"count":662,"min":[-1,-1,-1],"max":[1,1,1],"type":"VEC3","bufferView":0,"byteOffset":7944},{"name":"pyramid-Mesh_texcoords","componentType":5126,"count":662,"min":[0.005200000014156103,0.005200000014156103],"max":[0.9947999715805054,0.9947999715805054],"type":"VEC2","bufferView":1,"byteOffset":0},{"name":"pyramid-Mesh_0_indices","componentType":5123,"count":942,"min":[0],"max":[661],"type":"SCALAR","bufferView":2,"byteOffset":0}],"asset":{"generator":"obj2gltf","version":"2.0"},"buffers":[{"name":"PUSHILIN_pyramid","byteLength":161304,"uri":"data:application/octet-stream;base64,"}],"bufferViews":[{"name":"bufferView_0","buffer":0,"byteLength":15888,"byteOffset":0,"byteStride":12,"target":34962},{"name":"bufferView_1","buffer":0,"byteLength":5296,"byteOffset":15888,"byteStride":8,"target":34962},{"name":"bufferView_2","buffer":0,"byteLength":1884,"byteOffset":21184,"target":34963},{"buffer":0,"byteOffset":23068,"byteLength":138233}],"images":[{"name":"PUSHILIN_pyramid","mimeType":"image/png","bufferView":3}],"materials":[{"name":"None.001","pbrMetallicRoughness":{"baseColorTexture":{"index":0},"baseColorFactor":[1,1,1,1],"metallicFactor":0,"roughnessFactor":1},"emissiveFactor":[0,0,0],"alphaMode":"OPAQUE","doubleSided":false}],"meshes":[{"name":"pyramid-Mesh","primitives":[{"attributes":{"POSITION":0,"NORMAL":1,"TEXCOORD_0":2},"indices":3,"material":0,"mode":4}]}],"nodes":[{"name":"pyramid","mesh":0}],"samplers":[{"magFilter":9729,"minFilter":9986,"wrapS":10497,"wrapT":10497}],"scene":0,"scenes":[{"nodes":[0]}],"textures":[{"name":"PUSHILIN_pyramid","sampler":0,"source":0}]}
