{"accessors":[{"name":"windmill-Mesh_positions","componentType":5126,"count":1182,"min":[-0.7951880097389221,-0.6044049859046936,-1.34524405002594],"max":[0.8300510048866272,0.757224977016449,1.0164819955825806],"type":"VEC3","bufferView":0,"byteOffset":0},{"name":"windmill-Mesh_normals","componentType":5126,"count":1182,"min":[-1,-1,-1],"max":[1,1,1],"type":"VEC3","bufferView":0,"byteOffset":14184},{"name":"windmill-Mesh_texcoords","componentType":5126,"count":1182,"min":[0.014299999922513962,0.010300000198185444],"max":[0.9894999861717224,0.9854000210762024],"type":"VEC2","bufferView":1,"byteOffset":0},{"name":"windmill-Mesh_0_indices","componentType":5123,"count":1752,"min":[0],"max":[1181],"type":"SCALAR","bufferView":2,"byteOffset":0}],"asset":{"generator":"obj2gltf","version":"2.0"},"buffers":[{"name":"PUSHILIN_windmill","byteLength":273388,"uri":"data:application/octet-stream;base64,"}],"bufferViews":[{"name":"bufferView_0","buffer":0,"byteLength":28368,"byteOffset":0,"byteStride":12,"target":34962},{"name":"bufferView_1","buffer":0,"byteLength":9456,"byteOffset":28368,"byteStride":8,"target":34962},{"name":"bufferView_2","buffer":0,"byteLength":3504,"byteOffset":37824,"target":34963},{"buffer":0,"byteOffset":41328,"byteLength":232058}],"images":[{"name":"PUSHILIN_windmill","mimeType":"image/png","bufferView":3}],"materials":[{"name":"None","pbrMetallicRoughness":{"baseColorTexture":{"index":0},"baseColorFactor":[1,1,1,1],"metallicFactor":0,"roughnessFactor":1},"emissiveFactor":[0,0,0],"alphaMode":"OPAQUE","doubleSided":false}],"meshes":[{"name":"windmill-Mesh","primitives":[{"attributes":{"POSITION":0,"NORMAL":1,"TEXCOORD_0":2},"indices":3,"material":0,"mode":4}]}],"nodes":[{"name":"windmill","mesh":0}],"samplers":[{"magFilter":9729,"minFilter":9986,"wrapS":10497,"wrapT":10497}],"scene":0,"scenes":[{"nodes":[0]}],"textures":[{"name":"PUSHILIN_windmill","sampler":0,"source":0}]}
